<?xml version="1.0" encoding="utf-8"?>
<!-- Generator: Adobe Illustrator 14.0.0, SVG Export Plug-In . SVG Version: 6.00 Build 43363)  -->
<!DOCTYPE svg PUBLIC "-//W3C//DTD SVG 1.1//EN" "http://www.w3.org/Graphics/SVG/1.1/DTD/svg11.dtd">
<svg version="1.1" id="microsoft" xmlns:svg="http://www.w3.org/2000/svg"
	 xmlns="http://www.w3.org/2000/svg" xmlns:xlink="http://www.w3.org/1999/xlink" x="0px" y="0px" width="400px" height="300px"
	 viewBox="0 0 400 300" enable-background="new 0 0 400 300" xml:space="preserve">
<path id="microsoft_1_" fill="#777777" d="M378.215,145.377v-6.268h-7.785v-9.746l-0.262,0.081l-7.313,2.237l-0.145,0.044v7.384
	h-11.539v-4.114c0-1.915,0.428-3.381,1.273-4.358c0.838-0.966,2.037-1.457,3.564-1.457c1.1,0,2.236,0.259,3.383,0.771l0.287,0.128
	v-6.602l-0.135-0.049c-1.068-0.384-2.521-0.578-4.324-0.578c-2.27,0-4.334,0.494-6.133,1.474c-1.801,0.98-3.217,2.38-4.207,4.16
	c-0.99,1.778-1.49,3.831-1.49,6.103v4.523h-5.422v6.268h5.422v26.406h7.779v-26.406h11.541v16.782c0,6.911,3.26,10.413,9.688,10.413
	c1.059,0,2.17-0.125,3.305-0.367c1.156-0.248,1.943-0.498,2.406-0.762l0.104-0.061v-6.326l-0.316,0.209
	c-0.424,0.281-0.947,0.513-1.564,0.683c-0.619,0.174-1.137,0.262-1.537,0.262c-1.506,0-2.621-0.406-3.313-1.207
	c-0.699-0.809-1.055-2.223-1.055-4.199v-15.426h7.787V145.377z M320.595,166.209c-2.824,0-5.051-0.936-6.621-2.781
	c-1.578-1.854-2.379-4.496-2.379-7.855c0-3.465,0.801-6.175,2.381-8.063c1.57-1.874,3.775-2.825,6.557-2.825
	c2.697,0,4.846,0.908,6.383,2.702c1.547,1.802,2.332,4.493,2.332,7.998c0,3.549-0.738,6.273-2.193,8.098
	C325.609,165.291,323.435,166.209,320.595,166.209 M320.943,138.321c-5.389,0-9.668,1.579-12.721,4.692
	c-3.049,3.115-4.596,7.425-4.596,12.812c0,5.115,1.51,9.229,4.486,12.229c2.977,2.998,7.027,4.519,12.039,4.519
	c5.225,0,9.418-1.601,12.469-4.756s4.594-7.425,4.594-12.685c0-5.197-1.449-9.342-4.311-12.321S326.015,138.321,320.943,138.321
	 M291.082,138.321c-3.666,0-6.697,0.937-9.014,2.786c-2.33,1.859-3.512,4.298-3.512,7.249c0,1.535,0.254,2.896,0.756,4.052
	c0.508,1.16,1.287,2.181,2.326,3.037c1.031,0.851,2.621,1.74,4.729,2.646c1.771,0.729,3.094,1.346,3.934,1.832
	c0.82,0.477,1.404,0.955,1.732,1.422c0.318,0.457,0.48,1.08,0.48,1.852c0,2.195-1.643,3.265-5.025,3.265
	c-1.254,0-2.688-0.263-4.254-0.776c-1.568-0.519-3.035-1.261-4.355-2.212l-0.322-0.229v7.489l0.117,0.057
	c1.102,0.509,2.49,0.938,4.125,1.273c1.633,0.338,3.117,0.51,4.406,0.51c3.977,0,7.18-0.942,9.516-2.803
	c2.354-1.871,3.545-4.366,3.545-7.422c0-2.2-0.641-4.09-1.906-5.614c-1.256-1.511-3.438-2.896-6.479-4.123
	c-2.422-0.973-3.975-1.779-4.613-2.398c-0.615-0.6-0.932-1.445-0.932-2.517c0-0.951,0.389-1.711,1.182-2.328
	c0.801-0.62,1.914-0.935,3.313-0.935c1.297,0,2.623,0.205,3.941,0.605c1.318,0.401,2.477,0.938,3.441,1.596l0.318,0.217v-7.106
	l-0.121-0.053c-0.893-0.382-2.068-0.709-3.496-0.975C293.492,138.454,292.203,138.321,291.082,138.321 M258.273,166.209
	c-2.824,0-5.053-0.936-6.619-2.781c-1.58-1.854-2.379-4.496-2.379-7.855c0-3.465,0.799-6.175,2.379-8.063
	c1.568-1.874,3.773-2.825,6.557-2.825c2.697,0,4.844,0.908,6.383,2.702c1.545,1.802,2.33,4.493,2.33,7.998
	c0,3.549-0.736,6.273-2.191,8.098C263.285,165.291,261.113,166.209,258.273,166.209 M258.619,138.321
	c-5.391,0-9.67,1.579-12.719,4.692c-3.051,3.115-4.598,7.425-4.598,12.812c0,5.117,1.512,9.229,4.486,12.229
	c2.977,2.999,7.029,4.519,12.041,4.519c5.223,0,9.418-1.601,12.469-4.756c3.047-3.155,4.594-7.425,4.594-12.685
	c0-5.197-1.449-9.342-4.313-12.321C267.719,139.832,263.695,138.321,258.619,138.321 M229.492,144.767v-5.659h-7.688v32.674h7.688
	v-16.714c0-2.843,0.645-5.178,1.916-6.94c1.256-1.743,2.93-2.626,4.973-2.626c0.691,0,1.469,0.114,2.311,0.34
	c0.834,0.225,1.438,0.468,1.793,0.724l0.322,0.234v-7.749l-0.125-0.053c-0.717-0.304-1.729-0.458-3.01-0.458
	c-1.932,0-3.66,0.62-5.141,1.842c-1.301,1.074-2.238,2.547-2.957,4.383h-0.082V144.767z M208.041,138.321
	c-3.525,0-6.672,0.756-9.346,2.247c-2.682,1.493-4.753,3.626-6.164,6.339c-1.404,2.707-2.117,5.867-2.117,9.39
	c0,3.088,0.69,5.92,2.057,8.418c1.368,2.5,3.303,4.457,5.751,5.813c2.447,1.355,5.273,2.043,8.402,2.043
	c3.654,0,6.771-0.729,9.271-2.172l0.102-0.057v-7.041l-0.322,0.233c-1.133,0.826-2.398,1.484-3.76,1.959
	c-1.359,0.474-2.6,0.713-3.686,0.713c-3.016,0-5.436-0.942-7.191-2.803c-1.763-1.865-2.656-4.479-2.656-7.771
	c0-3.313,0.932-5.996,2.767-7.976c1.83-1.974,4.256-2.975,7.209-2.975c2.525,0,4.988,0.855,7.316,2.544l0.322,0.234v-7.419
	l-0.104-0.059c-0.877-0.491-2.07-0.896-3.557-1.203C210.861,138.476,209.414,138.321,208.041,138.321 M185.119,139.109h-7.687
	v32.675h7.687V139.109z M181.354,125.189c-1.265,0-2.367,0.431-3.273,1.284c-0.911,0.856-1.373,1.934-1.373,3.205
	c0,1.251,0.457,2.309,1.356,3.143c0.896,0.831,2.003,1.251,3.29,1.251c1.288,0,2.397-0.42,3.305-1.25
	c0.913-0.834,1.375-1.892,1.375-3.144c0-1.227-0.45-2.293-1.337-3.17C183.81,125.633,182.685,125.189,181.354,125.189
	 M162.177,136.698v35.086h7.844v-45.595h-10.855l-13.799,33.866l-13.393-33.866h-11.298v45.595h7.371v-35.09h0.253l14.141,35.088
	h5.563l13.92-35.085L162.177,136.698L162.177,136.698z"/>
<path id="red" fill="#F35325" d="M57.944,147.111H21.786v-36.158h36.157V147.111z"/>
<path id="green" fill="#81BC06" d="M97.865,147.111H61.708v-36.158h36.157V147.111z"/>
<path id="blue" fill="#05A6F0" d="M57.943,187.047H21.785v-36.158h36.157V187.047z"/>
<path id="yellow" fill="#FFBA08" d="M97.865,187.047H61.708v-36.158h36.157V187.047z"/>
</svg>
